<svg width="15" height="14" viewBox="0 0 15 14" fill="none" xmlns="http://www.w3.org/2000/svg">
<path d="M10.9227 13.6667C8.12519 13.6631 5.44328 12.5803 3.46512 10.6557C1.48697 8.73112 0.374048 6.1218 0.370422 3.39999C0.370422 2.58666 0.702505 1.80665 1.29362 1.23153C1.88473 0.656423 2.68645 0.333328 3.52241 0.333328C3.69942 0.332016 3.87615 0.347647 4.05002 0.379995C4.21811 0.404195 4.38335 0.444388 4.54337 0.499995C4.65592 0.538414 4.75621 0.60475 4.83432 0.692443C4.91244 0.780136 4.96567 0.886147 4.98876 0.999995L5.92751 4.99999C5.95281 5.10857 5.94976 5.22158 5.91864 5.32872C5.88752 5.43585 5.82932 5.5337 5.74935 5.61333C5.66027 5.70666 5.65342 5.71333 4.81061 6.13999C5.48554 7.58057 6.66973 8.73743 8.1476 9.39999C8.59299 8.57333 8.59984 8.56666 8.69577 8.47999C8.77761 8.40219 8.87818 8.34556 8.9883 8.31528C9.09841 8.28501 9.21457 8.28204 9.32617 8.30666L13.4374 9.21999C13.5507 9.24556 13.6554 9.29876 13.7417 9.37457C13.8281 9.45037 13.8931 9.5463 13.9308 9.65333C13.9886 9.81157 14.0322 9.9744 14.061 10.14C14.0886 10.3075 14.1023 10.477 14.1021 10.6467C14.0895 11.4565 13.7481 12.2286 13.1524 12.7944C12.5567 13.3602 11.7552 13.6738 10.9227 13.6667V13.6667ZM3.52241 1.66666C3.05046 1.66842 2.59837 1.8516 2.26465 2.17628C1.93093 2.50097 1.74265 2.94083 1.74085 3.39999C1.74266 5.76872 2.71062 8.03992 4.43216 9.71486C6.1537 11.3898 8.48809 12.3316 10.9227 12.3333C11.3947 12.3316 11.8468 12.1484 12.1805 11.8237C12.5142 11.499 12.7025 11.0592 12.7043 10.6V10.38L9.52488 9.66666L9.32617 10.0333C9.01782 10.6133 8.7917 11.0333 8.21612 10.8067C7.08064 10.4112 6.04995 9.77468 5.19894 8.94325C4.34793 8.11181 3.69797 7.10638 3.29629 5.99999C3.04961 5.47999 3.51555 5.23999 4.10484 4.93999L4.48171 4.75999L3.74853 1.66666H3.52241Z" fill="#969696"/>
</svg>
